<svg width="21" height="18" viewBox="0 0 21 18" fill="none" xmlns="http://www.w3.org/2000/svg">
<path d="M12.6251 7.98594H11.574V6.9659C11.574 6.69537 11.4633 6.43592 11.2662 6.24463C11.0691 6.05333 10.8017 5.94586 10.523 5.94586C10.2442 5.94586 9.97689 6.05333 9.77978 6.24463C9.58267 6.43592 9.47194 6.69537 9.47194 6.9659V7.98594H8.4209C8.14215 7.98594 7.87481 8.0934 7.67771 8.2847C7.4806 8.47599 7.36987 8.73544 7.36987 9.00597C7.36987 9.2765 7.4806 9.53595 7.67771 9.72725C7.87481 9.91854 8.14215 10.026 8.4209 10.026H9.47194V11.046C9.47194 11.3166 9.58267 11.576 9.77978 11.7673C9.97689 11.9586 10.2442 12.0661 10.523 12.0661C10.8017 12.0661 11.0691 11.9586 11.2662 11.7673C11.4633 11.576 11.574 11.3166 11.574 11.046V10.026H12.6251C12.9038 10.026 13.1711 9.91854 13.3682 9.72725C13.5654 9.53595 13.6761 9.2765 13.6761 9.00597C13.6761 8.73544 13.5654 8.47599 13.3682 8.2847C13.1711 8.0934 12.9038 7.98594 12.6251 7.98594ZM19.0994 1.86572C17.9787 0.789279 16.4985 0.137034 14.9258 0.0266776C13.3531 -0.083679 11.7916 0.35512 10.523 1.2639C9.1857 0.298574 7.52121 -0.13915 5.8647 0.0388726C4.20819 0.216896 2.6827 0.997442 1.59544 2.22333C0.508177 3.44922 -0.0601019 5.02938 0.00504015 6.64562C0.0701822 8.26187 0.763907 9.79412 1.94651 10.9338L8.25274 17.1051C8.84395 17.6781 9.64536 18 10.4809 18C11.3165 18 12.1179 17.6781 12.7091 17.1051L19.0154 10.9338C19.6364 10.3449 20.1315 9.64268 20.472 8.86749C20.8126 8.09229 20.9919 7.25942 20.9997 6.41674C21.0075 5.57407 20.8437 4.7382 20.5176 3.95718C20.1915 3.17616 19.7095 2.46539 19.0994 1.86572ZM17.6175 9.47519L11.3113 15.5954C11.2135 15.691 11.0973 15.7669 10.9692 15.8187C10.8411 15.8705 10.7038 15.8971 10.565 15.8971C10.4263 15.8971 10.2889 15.8705 10.1608 15.8187C10.0327 15.7669 9.91649 15.691 9.81878 15.5954L3.51256 9.47519C2.68829 8.65747 2.22673 7.55902 2.22673 6.41508C2.22673 5.27115 2.68829 4.17269 3.51256 3.35497C4.3525 2.55015 5.48533 2.09887 6.66567 2.09887C7.84601 2.09887 8.97884 2.55015 9.81878 3.35497C9.91649 3.45058 10.0327 3.52646 10.1608 3.57825C10.2889 3.63004 10.4263 3.6567 10.565 3.6567C10.7038 3.6567 10.8411 3.63004 10.9692 3.57825C11.0973 3.52646 11.2135 3.45058 11.3113 3.35497C12.1512 2.55015 13.284 2.09887 14.4644 2.09887C15.6447 2.09887 16.7775 2.55015 17.6175 3.35497C18.4481 4.1736 18.9136 5.2764 18.9136 6.42528C18.9136 7.57417 18.4481 8.67696 17.6175 9.49559V9.47519Z" fill="#3675EE"/>
</svg>
