<svg width="21" height="21" viewBox="0 0 21 21" fill="none" xmlns="http://www.w3.org/2000/svg">
<path d="M10.5 0C8.4233 0 6.39323 0.615814 4.66652 1.76957C2.9398 2.92332 1.59399 4.5632 0.799269 6.48182C0.00454948 8.40044 -0.203386 10.5116 0.201759 12.5484C0.606904 14.5852 1.60693 16.4562 3.07538 17.9246C4.54383 19.3931 6.41476 20.3931 8.45156 20.7982C10.4884 21.2034 12.5996 20.9955 14.5182 20.2007C16.4368 19.406 18.0767 18.0602 19.2304 16.3335C20.3842 14.6068 21 12.5767 21 10.5C21 9.12112 20.7284 7.75574 20.2007 6.48182C19.6731 5.2079 18.8996 4.05039 17.9246 3.07538C16.9496 2.10036 15.7921 1.32694 14.5182 0.799265C13.2443 0.271591 11.8789 0 10.5 0ZM10.5 18.9C8.83864 18.9 7.21459 18.4073 5.83321 17.4843C4.45184 16.5613 3.37519 15.2494 2.73942 13.7145C2.10364 12.1796 1.93729 10.4907 2.26141 8.86124C2.58552 7.2318 3.38555 5.73506 4.56031 4.5603C5.73507 3.38554 7.2318 2.58552 8.86125 2.2614C10.4907 1.93729 12.1796 2.10364 13.7145 2.73941C15.2494 3.37519 16.5613 4.45184 17.4843 5.83321C18.4073 7.21458 18.9 8.83863 18.9 10.5C18.9 12.7278 18.015 14.8644 16.4397 16.4397C14.8644 18.015 12.7278 18.9 10.5 18.9ZM10.5 4.2C10.2215 4.2 9.95445 4.31062 9.75754 4.50754C9.56063 4.70445 9.45 4.97152 9.45 5.25V9.891L7.245 11.1615C7.04273 11.2761 6.88422 11.4546 6.79432 11.669C6.70443 11.8835 6.68824 12.1216 6.7483 12.3462C6.80835 12.5708 6.94125 12.7692 7.12616 12.9101C7.31106 13.051 7.53752 13.1266 7.77 13.125C7.95394 13.1263 8.13498 13.0792 8.295 12.9885L11.025 11.4135L11.1195 11.319L11.2875 11.1825C11.3286 11.1305 11.3638 11.0742 11.3925 11.0145C11.4267 10.9581 11.4549 10.8983 11.4765 10.836C11.5051 10.7692 11.5228 10.6983 11.529 10.626L11.55 10.5V5.25C11.55 4.97152 11.4394 4.70445 11.2425 4.50754C11.0456 4.31062 10.7785 4.2 10.5 4.2Z" fill="#3675EE"/>
</svg>
